<?xml version="1.0" standalone="no"?>
<!DOCTYPE svg PUBLIC "-//W3C//DTD SVG 20010904//EN"
 "http://www.w3.org/TR/2001/REC-SVG-20010904/DTD/svg10.dtd">
<svg version="1.0" xmlns="http://www.w3.org/2000/svg"
 width="845.000000pt" height="493.000000pt" viewBox="0 0 845.000000 493.000000"
 preserveAspectRatio="xMidYMid meet">

<g transform="translate(0.000000,493.000000) scale(0.100000,-0.100000)"
fill="#000000" stroke="none">
<path d="M0 2466 l0 -2465 2048 2 2047 2 3 73 c2 39 7 72 12 72 6 0 10 8 11
18 0 10 3 12 6 5 3 -9 27 -13 68 -13 60 0 63 -1 69 -28 4 -15 14 -51 22 -80
l15 -52 242 1 242 1 -100 27 c-358 98 -418 116 -403 119 16 3 285 -67 474
-124 44 -13 102 -24 130 -23 27 0 45 2 39 4 -5 2 -125 33 -265 70 -140 37
-279 74 -307 82 l-53 14 0 215 c0 118 1 214 3 214 9 0 275 -51 287 -55 8 -2
118 -22 244 -44 125 -22 230 -42 233 -45 2 -2 4 -106 3 -230 l-1 -226 218 0
218 0 32 50 32 49 -78 163 -78 163 -219 38 c-232 41 -471 88 -417 84 18 -2 30
0 28 3 -3 4 -53 10 -112 14 -60 4 -169 18 -243 31 -89 15 -167 22 -230 21 -52
-1 -102 1 -110 5 -13 6 -14 22 -10 92 4 48 12 92 19 101 10 12 32 16 93 16
l79 0 14 -34 c8 -18 17 -63 21 -99 l7 -65 51 -7 c28 -3 83 -13 123 -21 93 -18
99 -18 83 1 -7 9 -11 18 -8 20 4 4 442 24 531 25 22 0 27 -4 27 -25 0 -13 8
-29 18 -34 14 -8 10 -10 -20 -11 -56 0 -68 -8 -68 -45 0 -32 1 -33 53 -39 28
-4 54 -6 57 -4 2 2 4 17 3 33 -2 29 -2 28 8 -5 9 -32 15 -37 62 -48 29 -7 57
-12 63 -12 13 0 39 103 31 117 -4 6 -18 8 -32 6 -41 -8 -72 4 -79 32 -5 21
-13 25 -44 27 -100 4 138 15 318 15 122 0 173 -3 127 -6 -78 -6 -78 -6 -60
-26 10 -11 62 -71 116 -133 l97 -113 0 146 c0 80 3 145 8 145 4 0 5 -89 2
-197 l-5 -198 -110 -6 c-60 -4 -125 -7 -143 -8 -18 0 -31 -4 -29 -8 3 -5 58
-5 124 -1 65 3 163 6 218 6 l100 -1 -70 -7 c-38 -4 -134 -11 -211 -15 l-142
-7 29 -64 30 -65 -31 -44 c-16 -24 -30 -46 -30 -49 0 -3 657 -6 1460 -6 l1460
0 0 2465 0 2465 -4225 0 -4225 0 0 -2464z m4091 1754 c2 0 4 55 4 121 0 119 1
122 25 141 50 37 152 36 191 -3 17 -17 19 -34 19 -172 l0 -154 -82 5 c-72 3
-93 9 -158 42 -41 21 -356 172 -700 335 l-625 297 -23 -29 c-12 -15 -55 -70
-94 -121 l-72 -94 104 -206 105 -207 135 -51 c316 -118 1148 -436 1183 -451
20 -9 37 -20 37 -25 0 -11 0 -11 -78 22 -39 17 -73 30 -76 30 -4 0 -6 -15 -6
-34 0 -33 -2 -35 -42 -40 -73 -10 -568 -57 -665 -63 -52 -3 -93 -10 -93 -16 0
-12 83 -7 483 33 321 31 398 36 362 20 -11 -5 -157 -21 -325 -35 -168 -15
-316 -29 -330 -33 -22 -5 -21 -6 10 -9 96 -9 386 -45 389 -49 11 -10 -112 -2
-304 21 -348 41 -465 54 -1085 124 l-595 67 -136 -125 c-76 -69 -138 -131
-138 -136 -1 -6 68 -78 152 -162 l152 -152 793 -66 c437 -36 804 -70 817 -75
12 -5 33 -7 46 -4 13 2 18 2 12 -2 -7 -3 -13 -15 -13 -27 0 -11 -7 -28 -15
-37 -18 -20 -15 -21 172 -61 100 -21 103 -22 191 -4 97 18 152 16 64 -3 -29
-7 -61 -12 -71 -12 -10 0 -21 -3 -25 -7 -6 -6 263 -71 299 -73 6 0 10 32 10
76 0 95 9 104 111 104 58 0 73 -3 78 -17 14 -35 46 -196 41 -201 -9 -9 -188
-1 -206 9 -15 8 -179 44 -1019 224 -162 35 -298 61 -301 57 -3 -4 -45 -67 -92
-140 l-87 -133 92 -157 c50 -86 96 -163 102 -170 7 -7 93 -23 212 -37 900
-114 1077 -137 1097 -145 16 -7 5 -8 -38 -4 -33 4 -127 6 -210 6 -134 -2 -148
0 -131 13 25 19 22 20 -139 39 -71 9 -150 19 -174 23 -32 4 -42 3 -37 -5 4 -7
21 -12 37 -12 25 0 28 -3 20 -17 -31 -58 -5 -53 -426 -68 -215 -7 -393 -10
-397 -6 -4 3 -8 97 -10 209 l-3 202 35 0 c23 0 31 3 24 10 -11 11 -419 -5
-480 -18 -25 -5 -50 -31 -118 -116 -47 -60 -86 -112 -85 -115 0 -3 44 -52 97
-108 l97 -102 604 20 c332 10 606 17 609 14 3 -3 3 -7 1 -9 -2 -2 -276 -13
-609 -24 l-605 -20 -107 112 c-60 61 -106 117 -103 124 8 21 177 234 190 239
7 2 116 10 244 17 127 7 233 15 236 18 3 3 -6 26 -21 52 l-26 46 90 139 90
139 -31 5 c-18 3 -239 23 -492 43 l-460 38 -155 163 c-85 90 -155 168 -155
173 0 5 65 70 145 145 108 100 150 134 165 131 11 -3 52 -8 91 -11 l70 -7 81
110 c74 100 84 110 119 116 41 7 533 66 759 91 224 26 219 19 54 82 -79 30
-157 59 -172 65 -24 9 -45 44 -137 228 l-109 218 52 68 c29 38 73 97 99 131
l48 61 669 -319 c368 -175 670 -319 672 -319z m-1154 411 l218 -99 3 -46 c2
-25 0 -46 -3 -46 -7 0 -487 210 -494 216 -1 1 9 15 23 31 14 15 26 31 26 35 0
5 2 8 5 8 2 0 102 -45 222 -99z m707 -241 l456 -214 0 -212 c0 -117 2 -218 5
-226 3 -7 1 -19 -4 -26 -6 -11 -96 21 -412 143 -222 86 -428 166 -456 177
l-53 19 0 98 c0 54 -3 180 -7 281 -4 126 -3 182 4 179 6 -2 216 -101 467 -219z
m3284 -56 c84 -75 152 -140 150 -145 -2 -5 -75 -81 -163 -170 l-160 -162 -185
-18 c-102 -10 -264 -26 -360 -35 -96 -9 -177 -18 -180 -21 -2 -2 0 -7 6 -11
14 -10 134 -157 134 -165 0 -4 -54 -90 -119 -191 l-119 -185 66 -6 c37 -4 77
-10 89 -13 18 -6 177 -221 186 -252 1 -4 -24 -37 -56 -74 -58 -65 -58 -66 -30
-66 15 0 140 7 277 15 l249 15 30 -26 c17 -14 85 -77 151 -140 l121 -114 -155
-150 c-112 -108 -163 -150 -185 -154 -37 -6 -1461 -50 -1527 -47 -34 1 -48 -2
-48 -11 0 -10 -2 -10 -9 1 -7 11 -24 13 -68 8 -32 -3 -49 -2 -38 3 24 9 399
24 1130 45 297 9 549 18 560 21 11 2 85 67 165 143 l145 139 -90 84 c-49 46
-113 105 -141 131 l-51 47 -264 -15 c-759 -43 -1576 -84 -1744 -88 -236 -6
-135 2 395 32 206 12 386 22 400 24 14 1 -78 10 -205 21 -126 10 -248 22 -270
26 l-40 8 44 1 c46 1 504 -35 558 -44 33 -6 427 10 518 21 47 6 54 10 107 72
66 77 70 56 -41 212 l-67 95 -99 13 c-59 7 -108 9 -120 4 -14 -6 6 -11 70 -16
141 -12 141 -11 192 -83 25 -35 44 -66 41 -68 -2 -2 -109 7 -238 20 -129 14
-236 25 -237 25 -1 0 1 20 4 45 3 26 1 45 -4 45 -6 0 -13 -78 -17 -182 -4
-101 -9 -185 -12 -187 -5 -5 -651 47 -682 56 -12 3 -22 11 -22 17 0 6 -11 27
-24 46 -17 26 -22 44 -18 69 4 32 4 33 -24 27 -16 -3 -78 -15 -139 -26 -60
-12 -118 -23 -127 -26 -19 -6 -17 -9 24 -54 10 -11 14 -22 9 -24 -14 -9 -246
15 -252 26 -4 7 -24 6 -58 -1 -62 -13 -61 -13 -61 -3 0 10 -30 4 1130 227 245
47 454 87 465 90 11 2 31 22 44 42 14 21 66 102 117 180 l93 142 -86 103 c-47
57 -96 116 -110 132 l-24 29 -62 -17 c-59 -15 -232 -61 -677 -177 -107 -28
-233 -62 -280 -74 -47 -13 -193 -51 -325 -85 -132 -34 -255 -68 -274 -76 -30
-13 -211 -21 -211 -10 0 16 44 194 52 209 7 14 22 17 77 17 93 0 104 -12 99
-114 l-3 -77 30 7 c17 4 55 14 85 23 l55 17 -50 19 c-51 18 -78 35 -59 35 6 0
39 -11 74 -25 66 -26 90 -30 90 -17 0 4 -30 18 -67 31 -105 37 -123 48 -123
76 0 18 5 25 19 25 52 0 1062 102 1104 111 56 13 63 24 10 16 -21 -3 -254 -26
-518 -51 -264 -25 -496 -49 -515 -54 l-36 -8 7 65 c4 37 6 146 5 244 0 97 0
177 2 177 3 0 874 103 1227 145 116 14 262 31 325 39 63 7 116 12 118 11 2 -2
0 -117 -5 -257 l-8 -253 -47 -3 c-54 -3 -66 -22 -15 -22 17 0 183 14 367 31
l335 32 158 156 c86 86 157 158 157 162 0 3 -63 61 -141 130 -132 116 -144
124 -178 121 -20 -2 -126 -14 -236 -27 -110 -13 -468 -56 -795 -95 -923 -110
-1262 -150 -1302 -157 -25 -4 -38 -2 -38 6 0 6 5 11 10 11 6 0 101 11 213 25
111 13 634 76 1162 139 930 111 1014 121 1026 125 3 0 74 -60 157 -135z
m-4012 8 l239 -98 3 -48 c2 -37 0 -47 -10 -43 -242 95 -406 162 -416 170 -12
10 -62 99 -62 112 0 8 -3 9 246 -93z m3993 -53 c20 -18 53 -48 75 -67 l38 -34
-81 -82 -81 -82 -332 -33 c-183 -19 -348 -36 -368 -38 l-35 -5 3 143 c2 79 5
145 6 146 1 2 124 17 272 34 148 17 298 34 334 39 119 14 129 13 169 -21z
m-2597 -221 c14 -17 18 -32 14 -56 -6 -40 10 -33 19 9 l7 31 23 -22 c13 -12
28 -19 33 -16 6 3 9 -2 7 -11 -2 -10 -4 -22 -4 -27 -1 -4 -14 -6 -31 -4 -34 5
-34 5 -31 -107 1 -44 -1 -56 -8 -45 -8 11 -11 0 -11 -41 0 -40 -4 -58 -15 -62
-8 -4 -12 -15 -10 -27 2 -11 0 -20 -6 -20 -5 0 -9 11 -9 25 0 25 -1 25 -86 25
-76 0 -85 2 -74 15 10 12 10 15 -1 16 -10 0 -11 2 -1 6 7 3 11 22 10 51 l-1
47 -6 -45 c-5 -43 -6 -41 -11 25 -3 39 -3 105 0 148 6 97 16 107 108 107 55 0
68 -4 84 -22z m1136 -623 c-3 -146 -7 -267 -10 -270 -5 -5 -1068 -215 -1088
-215 -9 0 -11 55 -9 231 2 127 7 233 10 234 3 2 232 63 510 135 277 71 518
134 534 139 62 19 58 35 53 -254z m-1055 218 c-7 -2 -21 -2 -30 0 -10 3 -4 5
12 5 17 0 24 -2 18 -5z m-2517 -12 l42 -1 7 -93 7 -94 233 -23 234 -24 -1 -47
c0 -26 3 -62 7 -79 l7 -32 -48 6 c-40 5 -180 18 -404 39 l-25 2 4 -93 c3 -87
2 -94 -15 -90 -14 2 -21 16 -26 53 -9 74 -9 175 1 175 11 0 403 -38 455 -44
21 -2 35 -1 30 4 -5 4 -45 11 -89 14 -44 4 -116 11 -160 16 -44 5 -120 12
-169 15 l-89 7 5 -116 c4 -114 4 -116 -18 -116 -30 0 -33 12 -32 125 0 53 -3
100 -8 105 -5 5 -55 14 -111 19 -56 5 -107 12 -113 16 -5 3 -10 2 -10 -3 0
-10 33 -16 162 -28 l67 -6 3 -110 c2 -61 0 -112 -3 -113 -3 -2 -13 5 -22 16
-13 14 -17 38 -17 93 l0 73 -37 7 c-21 3 -56 6 -79 6 -35 0 -46 6 -82 46 l-42
47 37 38 c25 26 44 37 58 34 11 -2 46 -7 78 -10 l57 -6 0 78 c0 84 9 105 44
98 12 -2 40 -4 62 -4z m2223 -43 c-1 -31 -1 -31 -8 -8 -5 14 -6 28 -4 33 9 15
13 6 12 -25z m-1042 -88 c537 -60 705 -80 898 -105 40 -6 40 -6 37 -45 -5 -50
4 -76 21 -63 6 6 26 13 42 17 22 5 26 4 15 -4 -8 -5 -10 -10 -5 -10 11 0 12
-307 1 -315 -3 -3 -4 -2 -1 1 5 8 -20 34 -34 34 -7 0 -11 41 -11 120 0 77 -4
120 -11 120 -12 0 -11 -298 2 -306 5 -3 9 0 9 6 0 5 13 9 29 8 21 -2 27 -6 23
-18 -9 -23 -22 -29 -51 -19 -14 4 -73 12 -131 18 -247 23 -458 41 -650 56
-259 19 -804 66 -806 68 -1 1 -4 116 -8 255 -4 159 -3 252 3 252 5 0 288 -31
628 -70z m3026 11 c-21 -32 -69 -106 -108 -164 l-69 -105 -211 -41 c-116 -22
-217 -41 -224 -41 -11 0 -13 24 -7 132 4 73 8 133 9 134 6 4 615 142 630 143
14 1 11 -10 -20 -58z m-2093 -81 c86 -14 -16 -10 -120 5 l-95 14 85 -5 c47 -4
105 -10 130 -14z m77 -16 c-3 -3 -12 -4 -19 -1 -8 3 -5 6 6 6 11 1 17 -2 13
-5z m218 -94 c11 -5 16 -9 10 -9 -5 -1 -3 -6 5 -12 11 -8 12 -12 3 -16 -10 -3
-13 -38 -11 -131 1 -103 3 -115 8 -62 l6 65 5 -75 c2 -41 1 -81 -4 -87 -5 -7
-6 -14 -1 -15 5 -1 -34 -4 -86 -7 -136 -8 -133 -12 -126 122 3 62 5 135 6 163
0 43 4 53 23 62 26 13 134 14 162 2z m22 -112 c-2 -13 -4 -3 -4 22 0 25 2 35
4 23 2 -13 2 -33 0 -45z m-1282 -303 c144 -30 150 -32 153 -56 l3 -26 -183 38
c-101 20 -191 39 -201 41 -16 3 -16 5 -2 25 13 18 22 21 48 16 18 -4 100 -21
182 -38z m1115 30 c0 -8 -4 -15 -10 -15 -5 0 -10 7 -10 15 0 8 5 15 10 15 6 0
10 -7 10 -15z m-547 -2 c-18 -2 -48 -2 -65 0 -18 2 -4 4 32 4 36 0 50 -2 33
-4z m1150 0 c-7 -2 -19 -2 -25 0 -7 3 -2 5 12 5 14 0 19 -2 13 -5z m-823 -17
c74 -8 138 -12 143 -9 4 2 7 -2 7 -9 0 -11 -16 -13 -70 -10 -61 4 -69 2 -64
-11 6 -18 4 -19 -121 -42 -116 -22 -121 -21 -90 12 14 15 25 31 25 36 0 4 10
11 23 16 17 7 6 10 -48 15 -104 11 -109 14 -20 14 44 1 141 -5 215 -12z m848
-43 c-10 -2 -28 -2 -40 0 -13 2 -5 4 17 4 22 1 32 -1 23 -4z m-1368 -47 c91
-19 284 -60 429 -91 146 -30 266 -57 268 -58 2 -2 4 -106 6 -230 2 -152 -1
-227 -8 -227 -5 1 -206 27 -445 58 l-435 58 -6 74 c-3 41 -7 162 -8 268 -2
182 -1 193 16 188 10 -3 92 -21 183 -40z m1184 34 c60 -6 116 -15 125 -21 12
-7 4 -9 -29 -5 -25 3 -92 8 -150 12 -114 7 -178 22 -100 23 25 1 94 -4 154 -9z
m-1590 -85 c99 -19 181 -36 182 -38 2 -2 7 -63 10 -136 7 -128 6 -133 -12
-128 -10 3 -113 20 -229 37 -115 18 -211 32 -212 33 0 1 -21 36 -45 77 l-45
75 41 63 41 63 45 -6 c25 -3 126 -21 224 -40z m3764 -48 c31 -30 88 -83 125
-118 l69 -64 -130 -122 c-71 -68 -141 -127 -154 -132 -33 -12 -313 -18 -312
-6 1 6 5 116 9 245 4 129 8 236 10 238 4 5 277 19 303 16 12 -2 48 -27 80 -57z
m-695 -139 c-2 -90 -6 -199 -9 -244 l-6 -81 -211 -7 c-117 -4 -387 -11 -602
-16 -375 -9 -806 -28 -814 -36 -2 -2 -13 1 -24 7 -12 7 -17 7 -13 1 3 -6 0
-12 -6 -15 -7 -3 121 -2 285 1 275 5 297 4 291 -12 -10 -25 5 -85 24 -95 9 -5
51 -12 93 -15 l76 -7 23 56 c12 30 24 54 27 52 2 -2 -8 -32 -23 -66 -25 -57
-29 -61 -53 -57 -59 12 -141 18 -141 11 0 -4 5 -25 12 -46 l11 -39 341 -1
c188 -1 404 -5 481 -9 89 -4 -33 -6 -338 -6 -262 1 -477 -2 -477 -5 0 -9 317
-19 620 -19 151 0 292 -3 313 -6 l37 -7 0 -208 0 -209 -237 1 c-131 1 -359 5
-508 8 l-270 7 213 2 c116 1 212 4 212 7 0 3 -14 18 -32 34 l-32 29 2 135 2
136 -47 -2 -48 -2 -5 -52 c-8 -73 -18 -75 -26 -4 l-7 61 -48 0 -49 0 -2 -67
c-1 -61 -2 -63 -5 -18 -3 29 -12 58 -22 70 -10 11 -24 29 -30 40 -8 13 -11 14
-7 3 3 -9 8 -34 12 -55 13 -75 -13 -18 -60 130 -37 117 -50 147 -62 143 -18
-7 -557 -111 -627 -121 -26 -4 -50 -11 -53 -16 -3 -5 -37 -9 -75 -9 l-69 0 6
28 c4 15 17 63 28 107 l21 80 78 0 c93 0 97 -4 97 -97 0 -57 3 -68 17 -68 16
0 483 88 511 96 11 3 10 7 -2 19 -8 8 -18 25 -21 36 -6 19 -12 21 -59 15 -28
-3 -85 -6 -126 -6 -55 0 -71 -3 -60 -11 11 -7 -7 -8 -60 -3 -41 4 -96 7 -122
5 -38 -2 -48 1 -48 14 0 9 -4 13 -10 10 -12 -8 -13 -3 0 29 5 14 6 26 2 26 -4
0 -7 83 -7 185 0 141 3 185 13 185 6 0 12 -10 12 -21 0 -17 5 -20 24 -17 l24
5 1 -139 c0 -136 0 -140 -24 -164 -27 -27 -25 -46 3 -42 11 2 17 -3 16 -14 -1
-10 2 -15 7 -12 5 3 9 90 9 194 0 123 4 191 11 195 6 4 8 13 5 21 -6 16 23 18
86 8 29 -5 36 -10 33 -26 -4 -17 -2 -18 11 -7 17 14 115 19 107 7 -2 -5 1 -8
6 -8 7 0 11 -52 11 -153 l0 -153 40 4 40 4 0 64 c0 40 4 64 11 64 8 0 10 -21
7 -65 l-4 -64 41 -4 c23 -2 13 -4 -27 -4 -81 -1 -96 -8 -72 -34 19 -21 71 -24
258 -12 105 6 106 6 86 25 -18 17 -25 34 -32 83 -2 13 -12 21 -31 23 -23 3
-27 8 -27 33 0 22 5 29 20 29 13 0 20 7 20 20 0 29 -3 35 -20 35 -10 0 -16 12
-18 33 -3 29 -1 32 22 32 21 0 26 5 26 25 0 24 -2 25 -65 25 -47 0 -65 -4 -64
-12 1 -7 1 -72 0 -143 -1 -124 -2 -131 -21 -131 -18 0 -20 7 -20 61 0 34 -5
66 -12 73 -9 9 -9 12 0 12 7 0 12 -1 12 -2 0 -2 6 -20 13 -41 l14 -37 1 65 c0
36 -3 65 -8 65 -5 0 -11 14 -15 30 -10 46 -45 64 -110 57 -31 -3 -55 -2 -55 4
0 5 25 9 55 9 l56 0 -18 25 c-17 24 -22 25 -78 21 -141 -12 -289 -16 -270 -7
11 5 55 10 97 10 43 1 133 6 200 12 142 12 1114 66 1233 68 l81 1 -3 -162z
m-1578 106 c-46 -7 -125 -8 -125 -1 0 4 33 6 73 6 39 -1 63 -3 52 -5z m-178
-99 c21 -14 22 -23 22 -175 0 -124 -3 -161 -13 -167 -8 -4 -16 -17 -19 -28 -4
-18 -5 -18 -6 3 -1 20 -6 22 -53 22 -66 0 -95 8 -102 27 -3 7 -2 12 2 9 5 -3
9 1 9 9 0 8 -5 13 -11 12 -7 -1 -11 39 -12 123 -1 69 1 113 3 98 7 -46 25 -33
20 15 -3 23 0 48 5 55 15 18 128 16 155 -3z m-1905 -237 c3 -112 4 -206 1
-210 -2 -5 -48 -8 -102 -8 l-98 0 -6 128 c-4 70 -7 162 -7 204 l0 77 68 4 c37
2 83 4 103 5 l36 2 5 -202z m2398 162 c0 -10 -4 -22 -10 -25 -6 -4 -10 7 -10
25 0 18 4 29 10 25 6 -3 10 -15 10 -25z m-2647 -24 c-10 -13 -20 -22 -22 -20
-4 4 29 44 36 44 2 0 -4 -11 -14 -24z m2731 -1 c-4 -8 -8 -15 -10 -15 -2 0 -4
7 -4 15 0 8 4 15 10 15 5 0 7 -7 4 -15z m-2764 -39 c0 -2 -8 -10 -17 -17 -16
-13 -17 -12 -4 4 13 16 21 21 21 13z m886 -41 c98 -14 180 -25 182 -25 1 0 2
-11 2 -25 0 -14 -3 -25 -7 -25 -13 0 -317 41 -339 45 -12 3 -29 16 -38 30 -21
32 -29 32 200 0z m-926 -9 c0 -2 -8 -10 -17 -17 -16 -13 -17 -12 -4 4 13 16
21 21 21 13z m-42 -56 c-11 -17 -7 -25 32 -67 l45 -48 -52 49 c-49 47 -52 51
-36 68 21 24 26 23 11 -2z m2952 -51 c-32 -4 -59 -4 -64 2 -6 5 15 9 55 8 l64
-1 -55 -9z m-2834 -111 l29 -33 -32 29 c-31 28 -38 36 -30 36 2 0 16 -15 33
-32z m1391 6 c-3 -3 -12 -4 -19 -1 -8 3 -5 6 6 6 11 1 17 -2 13 -5z m50 0 c-3
-3 -12 -4 -19 -1 -8 3 -5 6 6 6 11 1 17 -2 13 -5z m443 -24 c0 -6 -38 -10 -92
-10 -51 0 -123 -3 -160 -7 -47 -4 -68 -2 -68 5 0 11 57 16 233 20 52 1 87 -2
87 -8z m570 -41 c9 -6 -12 -7 -55 -3 -38 3 -77 10 -85 15 -9 6 12 7 55 3 39
-3 77 -10 85 -15z m117 -206 c-4 -71 -7 -190 -7 -265 l0 -138 -230 0 -229 0 0
219 c0 199 1 220 17 225 9 3 109 21 222 42 113 20 207 38 209 40 20 18 23 -8
18 -123z m-2902 87 c4 -6 -26 -10 -82 -11 l-88 0 -132 -127 -131 -127 142
-122 142 -122 1187 -3 c653 -2 1187 -6 1187 -10 0 -5 -536 -8 -1190 -8 l-1191
0 -149 131 c-83 73 -150 134 -150 138 0 3 62 65 138 138 l137 132 87 0 c48 1
90 -3 93 -9z m2105 -20 c139 -9 -1290 -1 -1760 10 -199 5 66 6 655 3 545 -3
1042 -9 1105 -13z m-50 -38 c83 -7 84 -7 31 -12 l-54 -5 -61 -142 c-53 -123
-64 -143 -83 -143 -19 0 -23 6 -23 30 0 25 4 30 25 30 21 0 25 5 25 30 0 25
-4 30 -24 30 -17 0 -25 7 -28 25 -5 22 -2 25 23 25 26 0 29 4 29 30 l0 30 -65
0 -66 0 3 -142 3 -143 73 0 c39 0 72 -3 72 -7 0 -5 -13 -8 -29 -8 -20 0 -34
-8 -45 -25 l-16 -25 105 0 105 0 20 40 c11 23 18 46 14 52 -4 6 -3 8 3 5 14
-9 37 37 30 62 -3 14 -1 18 9 14 10 -4 14 -27 14 -89 0 -46 0 -87 0 -91 0 -9
-1658 -15 -1663 -6 -3 5 -8 109 -12 232 l-8 224 754 -7 c415 -3 792 -10 839
-14z m2753 -107 l118 -125 -123 -119 -123 -120 -665 2 -665 2 658 2 657 3 115
112 c64 61 114 115 113 119 -2 4 -49 57 -106 118 l-104 111 -103 0 c-58 0
-107 4 -110 10 -4 6 34 10 107 10 l113 0 118 -125z m-2516 83 c-3 -8 -6 -5 -6
6 -1 11 2 17 5 13 3 -3 4 -12 1 -19z m-2025 -8 l178 0 0 -27 0 -26 -130 6
c-71 3 -197 3 -280 0 -133 -5 -150 -8 -150 -23 0 -26 44 -30 318 -30 l242 0 0
-25 0 -25 -280 0 -280 0 0 25 c0 24 -3 25 -61 25 l-60 0 4 -47 4 -48 336 -3
337 -2 0 -25 0 -25 -381 0 -381 0 -30 25 c-32 27 -31 28 25 25 l38 -2 -7 49
c-4 26 -12 51 -18 55 -6 4 5 20 29 42 22 19 42 30 43 25 2 -5 28 -9 58 -9 52
0 54 1 54 27 l0 26 107 -6 c58 -4 186 -7 285 -7z m2909 -56 c16 -51 16 -59 2
-102 -9 -26 -18 -50 -22 -53 -3 -4 -59 -10 -123 -14 l-118 -6 0 101 c0 72 4
102 13 104 23 7 222 32 227 28 2 -1 12 -28 21 -58z m-763 -136 l-3 -173 -60 0
c-33 -1 -65 0 -70 2 -15 5 -10 310 6 329 7 9 31 14 70 14 l59 0 -2 -172z
m-181 -75 c-2 -37 -3 -9 -3 62 0 72 1 102 3 68 2 -34 2 -93 0 -130z m943 6
c-23 -68 -46 -136 -52 -151 l-10 -28 -347 2 -346 1 335 9 c184 4 340 10 346
12 6 3 33 71 60 152 26 82 49 143 51 138 2 -6 -15 -67 -37 -135z m61 74 c-12
-20 -14 -14 -5 12 4 9 9 14 11 11 3 -2 0 -13 -6 -23z m203 -50 c-8 -100 -21
-115 -16 -20 3 75 7 97 17 97 3 0 3 -35 -1 -77z m-167 25 c-3 -8 -6 -5 -6 6
-1 11 2 17 5 13 3 -3 4 -12 1 -19z m80 -105 c-3 -10 -5 -2 -5 17 0 19 2 27 5
18 2 -10 2 -26 0 -35z m1443 37 c0 -3 -31 -33 -69 -67 l-70 -63 -240 0 -241 0
0 69 0 69 310 -2 c171 0 310 -3 310 -6z m-2863 -22 c-3 -8 -6 -5 -6 6 -1 11 2
17 5 13 3 -3 4 -12 1 -19z m-1477 -23 l0 -25 -327 0 -328 1 -30 24 -30 25 358
0 357 0 0 -25z m2758 -22 c-10 -2 -26 -2 -35 0 -10 3 -2 5 17 5 19 0 27 -2 18
-5z m115 0 c-7 -2 -21 -2 -30 0 -10 3 -4 5 12 5 17 0 24 -2 18 -5z m80 0 c-7
-2 -19 -2 -25 0 -7 3 -2 5 12 5 14 0 19 -2 13 -5z m80 0 c-7 -2 -21 -2 -30 0
-10 3 -4 5 12 5 17 0 24 -2 18 -5z m-1073 -90 c0 -5 7 -48 15 -98 8 -49 15
-94 15 -100 0 -7 -209 -10 -607 -10 -603 0 -1351 -11 -1490 -21 l-72 -6 -120
-136 c-66 -75 -121 -139 -122 -142 -1 -3 58 -64 132 -136 l134 -132 420 24
c231 13 661 37 957 54 594 33 606 34 593 21 -6 -4 -111 -14 -235 -20 -124 -7
-567 -32 -985 -56 l-760 -43 -142 141 c-79 78 -143 144 -143 148 0 3 57 71
126 150 l126 144 69 6 c38 4 376 10 751 14 374 4 692 11 705 16 13 5 125 6
257 2 l233 -6 1 79 c0 43 1 87 1 97 1 14 11 17 71 17 39 0 70 -3 70 -7z m833
0 c-24 -2 -62 -2 -85 0 -24 2 -5 4 42 4 47 0 66 -2 43 -4z m713 -178 c15 -23
23 -25 84 -25 37 0 135 -3 218 -7 l150 -6 122 -147 c68 -82 122 -152 121 -156
-1 -5 -56 -66 -122 -136 -87 -93 -115 -128 -101 -128 20 0 215 -205 210 -221
-9 -23 -204 -228 -222 -233 -29 -8 -121 -8 -113 0 3 4 32 9 63 13 l57 6 100
107 100 108 -43 47 c-24 27 -66 72 -93 102 l-50 53 -91 -1 c-50 0 -154 -4
-231 -7 -139 -7 -174 1 -73 16 l53 8 -60 1 c-33 1 -305 17 -605 36 -300 19
-634 40 -742 47 -109 7 -198 16 -198 21 0 5 39 6 88 3 48 -4 416 -27 817 -52
402 -25 784 -49 850 -53 l120 -8 133 131 c72 72 131 134 130 138 -2 4 -56 70
-120 147 l-117 139 -143 6 c-135 5 -298 8 -1203 21 -413 6 -561 13 -548 25 4
5 127 5 271 0 343 -12 987 -14 1079 -5 56 6 77 4 90 -6 14 -12 16 -12 11 1 -4
12 -30 16 -124 20 -129 5 -113 16 28 19 83 1 88 0 104 -24z m-2486 6 c-14 -4
-77 -4 -140 -1 l-115 7 140 1 c77 0 129 -3 115 -7z m2030 -1 c-101 -12 -358
-11 -365 0 -4 7 69 9 212 8 152 -1 198 -3 153 -8z m-1290 -259 l0 -220 -52 -5
c-29 -3 -318 -19 -643 -36 -324 -17 -606 -31 -625 -33 l-35 -2 -9 238 c-5 131
-7 240 -4 242 2 3 157 7 344 11 373 6 953 19 997 22 l27 2 0 -219z m1124 199
c280 -6 510 -11 510 -13 1 -1 0 -112 -2 -246 l-4 -243 -96 6 c-53 4 -315 20
-582 36 -267 16 -513 33 -547 36 l-62 7 0 211 c1 116 3 214 5 217 1 3 63 4
136 2 73 -2 362 -8 642 -13z m-1017 -12 c-3 -8 -6 -5 -6 6 -1 11 2 17 5 13 3
-3 4 -12 1 -19z m129 -16 c1 -15 11 -80 23 -145 22 -124 24 -187 7 -199 -6 -4
-44 -8 -83 -8 -62 0 -73 -3 -74 -17 -1 -16 -2 -16 -6 -2 -2 10 -13 19 -23 22
-18 5 -19 16 -18 156 1 181 3 186 98 182 59 -2 60 -2 60 25 0 34 14 22 16 -14z
m-1626 -84 c0 -57 3 -166 7 -244 l6 -141 -114 -6 c-63 -4 -184 -10 -269 -13
l-155 -6 -120 120 -121 119 112 129 111 129 69 6 c38 3 160 6 272 7 l202 2 0
-102z m3495 -64 l201 -6 42 -50 c23 -28 42 -53 42 -57 0 -4 -20 -27 -45 -51
l-44 -44 -288 13 c-158 6 -305 14 -325 17 l-38 6 0 95 0 96 128 -7 c70 -3 217
-9 327 -12z m-2070 -174 c3 -5 1 -10 -4 -10 -6 0 -11 5 -11 10 0 6 2 10 4 10
3 0 8 -4 11 -10z m-635 -170 c0 -5 -4 -10 -10 -10 -5 0 -10 -9 -10 -20 0 -11
-4 -20 -9 -20 -5 0 -12 -16 -15 -35 -4 -19 -16 -39 -26 -45 -12 -6 -62 -9
-118 -7 l-97 3 100 2 101 2 14 37 c28 80 41 103 55 103 8 0 15 -4 15 -10z
m365 -31 c7 -7 -5 -8 -35 -3 -71 11 -94 25 -30 19 30 -4 60 -11 65 -16z m-53
-20 c47 -11 51 -13 31 -22 -13 -5 -25 -18 -28 -27 -3 -10 -15 -20 -25 -23 -11
-3 -18 -1 -15 3 3 5 1 11 -5 15 -5 3 -10 -2 -10 -12 -1 -17 -1 -17 -11 0 -6
11 -9 29 -6 43 2 13 -1 25 -7 28 -22 9 24 6 76 -5z m1767 -11 c29 -2 -153 -16
-233 -17 -123 -2 -79 18 49 22 61 2 123 2 139 0 16 -2 36 -4 45 -5z m104 5
c-7 -2 -21 -2 -30 0 -10 3 -4 5 12 5 17 0 24 -2 18 -5z m65 0 c-10 -2 -26 -2
-35 0 -10 3 -2 5 17 5 19 0 27 -2 18 -5z m-590 -23 c-105 -13 -544 -23 -533
-11 11 11 141 16 430 18 109 0 142 -2 103 -7z m1065 3 c-13 -2 -33 -2 -45 0
-13 2 -3 4 22 4 25 0 35 -2 23 -4z m-1715 -20 c-10 -2 -28 -2 -40 0 -13 2 -5
4 17 4 22 1 32 -1 23 -4z m-385 -16 c-3 -9 -75 -10 -230 -6 l-78 3 90 6 c120
9 221 7 218 -3z m-430 -14 c-29 -2 -77 -2 -105 0 -29 2 -6 3 52 3 58 0 81 -1
53 -3z m2580 -58 c53 -33 96 -62 96 -65 0 -3 -44 -35 -99 -73 -91 -62 -130
-81 -115 -57 3 5 0 7 -8 4 -18 -6 -57 39 -87 100 -12 25 -26 44 -31 40 -5 -3
-9 -2 -9 3 0 10 141 115 150 111 3 -2 50 -30 103 -63z m-2133 45 c0 -5 -6 -10
-12 -11 -10 0 -10 -2 0 -6 15 -6 18 -353 2 -353 -5 0 -10 6 -10 14 0 8 -7 16
-14 19 -10 4 -13 1 -10 -7 3 -8 1 -17 -4 -20 -5 -3 -12 5 -14 19 -3 14 -1 25
3 25 5 0 8 17 8 38 -1 37 -1 37 -9 7 -7 -29 -8 -28 -9 11 -1 26 5 46 14 54 22
18 20 106 -2 119 -16 9 -16 10 3 11 23 0 34 16 27 38 -4 10 -8 10 -19 1 -11
-9 -14 -7 -14 14 0 25 3 27 53 36 4 0 7 -3 7 -9z m-1065 -10 c-38 -5 -317 -15
-620 -25 -302 -9 -568 -18 -590 -21 -35 -4 -57 -20 -175 -133 -88 -84 -132
-132 -125 -139 6 -5 71 -59 145 -119 l136 -110 144 8 c80 4 222 10 316 13 95
3 239 7 320 10 119 4 103 2 -76 -10 -124 -8 -335 -20 -470 -27 l-244 -12 -151
123 c-82 68 -151 127 -153 131 -1 3 61 69 137 145 l139 139 489 17 c528 19
900 23 778 10z m975 -203 l0 -214 -137 -6 c-76 -4 -273 -14 -438 -22 -165 -8
-424 -19 -575 -25 -151 -6 -309 -13 -351 -17 l-76 -6 -6 59 c-4 33 -10 134
-13 225 l-7 167 269 6 c559 13 1195 35 1203 42 2 2 33 4 68 4 l63 0 0 -213z
m136 176 c-10 -10 -19 5 -10 18 6 11 8 11 12 0 2 -7 1 -15 -2 -18z m90 -24
c61 -2 62 -2 55 -28 -9 -34 -5 -96 9 -120 5 -11 10 -49 10 -84 0 -88 -13 -99
-111 -95 l-74 3 -3 154 c-3 158 3 187 37 177 9 -3 44 -6 77 -7z m1048 -44 c-4
-8 -8 -15 -10 -15 -2 0 -4 7 -4 15 0 8 4 15 10 15 5 0 7 -7 4 -15z m-2897 -85
c3 -27 0 -42 -9 -45 -7 -2 -124 -9 -260 -15 l-247 -11 -83 43 c-73 38 -80 43
-55 46 43 5 641 28 646 25 3 -2 6 -21 8 -43z m-687 -92 c0 -4 15 -8 33 -8 l32
0 -25 -19 c-21 -17 -23 -22 -12 -45 13 -30 10 -32 -22 -11 -21 14 -25 14 -49
-6 -30 -23 -31 -22 -17 15 8 22 6 27 -18 40 -28 15 -23 21 23 28 12 2 21 12
23 28 4 24 5 24 18 5 8 -10 14 -22 14 -27z m3547 20 c-3 -8 -6 -5 -6 6 -1 11
2 17 5 13 3 -3 4 -12 1 -19z m-58 -65 c2 -1 -2 -9 -9 -18 -7 -8 -10 -21 -7
-28 3 -8 -3 -13 -15 -13 -15 0 -18 5 -14 23 4 12 2 25 -4 28 -5 3 -10 11 -10
16 0 6 5 7 10 4 6 -3 10 -1 10 6 0 8 5 8 18 -2 9 -7 19 -15 21 -16z m-2799
-49 c0 -39 -3 -44 -22 -44 -13 0 -162 -7 -332 -15 -170 -8 -311 -14 -313 -12
-2 2 32 25 74 51 l78 48 250 12 c138 6 253 10 258 8 4 -2 7 -23 7 -48z m3727
30 c-3 -3 -12 -4 -19 -1 -8 3 -5 6 6 6 11 1 17 -2 13 -5z m-104 -11 c-7 -2
-19 -2 -25 0 -7 3 -2 5 12 5 14 0 19 -2 13 -5z m-1928 -92 c-11 -10 -960 -62
-1080 -60 -70 2 -69 2 30 11 97 9 895 54 1005 57 33 1 50 -3 45 -8z m-1197
-68 c-26 -2 -71 -2 -100 0 -29 2 -8 3 47 3 55 0 79 -1 53 -3z"/>
<path d="M3125 4015 c-8 -3 -509 -64 -910 -110 -27 -4 -59 -8 -70 -10 -17 -4
-165 -191 -165 -209 0 -3 15 -6 34 -6 26 0 36 5 41 20 3 10 20 31 37 46 26 21
39 25 67 20 47 -7 65 -26 25 -26 -30 0 -74 -34 -74 -58 0 -13 55 -25 96 -20
20 2 29 8 28 21 -2 18 11 23 21 7 3 -5 13 -6 21 -3 13 5 15 1 9 -15 -3 -12 -5
-22 -3 -23 2 0 72 -8 157 -18 l154 -17 -7 157 -7 158 43 6 c63 8 541 65 553
65 6 0 3 5 -5 10 -15 10 -28 11 -45 5z"/>
<path d="M3325 3934 c-6 -2 -9 -57 -7 -144 l3 -140 30 0 c29 0 29 0 29 63 1
67 13 63 25 -10 6 -41 8 -43 42 -43 24 0 34 4 31 13 -28 76 -40 149 -30 187
10 39 9 42 -15 51 -33 12 -33 12 -33 -15 0 -13 -3 -33 -7 -43 -6 -13 -9 -3
-13 32 -4 41 -9 50 -25 52 -11 1 -24 0 -30 -3z"/>
<path d="M3135 3909 c-4 -5 -5 -71 -3 -145 l3 -134 33 0 33 0 -2 63 c-1 34 2
64 7 67 5 3 10 -23 12 -57 3 -62 3 -63 32 -63 l30 0 0 65 c0 50 -4 66 -17 73
-16 9 -16 11 0 27 19 19 22 51 7 89 -9 24 -14 26 -69 26 -33 0 -63 -5 -66 -11z
m85 -70 c0 -18 -5 -29 -14 -29 -9 0 -13 10 -11 33 4 40 3 39 15 32 6 -3 10
-19 10 -36z"/>
<path d="M3048 3903 c-16 -4 -18 -19 -18 -124 0 -73 -4 -119 -10 -119 -6 0
-10 47 -10 120 0 125 0 126 -45 114 -19 -5 -20 -11 -15 -130 4 -109 8 -128 24
-140 28 -20 73 -17 96 6 18 18 20 33 20 150 0 135 0 134 -42 123z"/>
<path d="M2835 3881 c-45 -5 -50 -9 -53 -33 -3 -23 1 -28 17 -28 20 0 21 -5
21 -110 l0 -110 33 0 32 0 -3 115 c-4 111 -3 115 17 115 17 0 21 6 21 30 0 33
4 32 -85 21z"/>
<path d="M3505 3773 c3 -59 7 -107 10 -105 3 1 28 2 55 2 49 0 50 1 50 30 0
25 -4 30 -25 30 -22 0 -25 4 -25 35 0 28 4 35 20 35 34 0 25 38 -13 54 -82 34
-77 40 -72 -81z"/>
<path d="M3688 3744 c3 -53 7 -64 19 -60 8 3 21 6 29 6 10 0 14 13 14 48 0 43
-3 50 -25 60 -14 7 -29 12 -33 12 -4 0 -5 -30 -4 -66z"/>
<path d="M2925 2989 c22 -4 49 -8 60 -8 17 -1 17 1 5 9 -8 5 -35 9 -60 9 l-45
-1 40 -9z"/>
<path d="M3263 2958 c1 -8 -10 -14 -26 -16 -36 -4 -25 -22 14 -22 24 0 29 4
29 25 0 14 -4 25 -10 25 -5 0 -9 -6 -7 -12z"/>
<path d="M3380 2925 c0 -28 4 -35 20 -35 16 0 20 7 20 35 0 28 -4 35 -20 35
-16 0 -20 -7 -20 -35z"/>
<path d="M2700 2540 c6 -11 13 -20 16 -20 2 0 0 9 -6 20 -6 11 -13 20 -16 20
-2 0 0 -9 6 -20z"/>
<path d="M2740 2470 c6 -11 13 -20 16 -20 2 0 0 9 -6 20 -6 11 -13 20 -16 20
-2 0 0 -9 6 -20z"/>
<path d="M2775 2411 c8 -17 19 -33 25 -36 5 -3 1 10 -11 29 -25 43 -36 48 -14
7z"/>
<path d="M2980 2300 c0 -38 2 -40 30 -40 28 0 30 2 30 40 0 38 -2 40 -30 40
-28 0 -30 -2 -30 -40z"/>
<path d="M3104 2303 c3 -31 5 -33 41 -33 20 0 25 5 25 25 0 18 -5 25 -19 25
-11 0 -26 3 -34 6 -11 4 -14 -2 -13 -23z"/>
<path d="M3210 2290 c0 -16 7 -20 30 -20 23 0 30 4 30 20 0 16 -7 20 -30 20
-23 0 -30 -4 -30 -20z"/>
<path d="M3300 2286 c0 -12 10 -16 36 -16 45 0 42 24 -4 28 -24 2 -32 -1 -32
-12z"/>
<path d="M3220 4454 c0 -22 6 -37 15 -40 12 -5 15 -31 15 -148 0 -143 0 -143
25 -154 l25 -12 0 140 c0 118 2 140 15 140 10 0 15 10 15 30 0 30 -17 44 -85
70 -24 9 -25 8 -25 -26z"/>
<path d="M3348 4258 c3 -172 6 -187 40 -188 10 0 12 15 6 70 -5 49 -3 70 5 70
7 0 11 -26 11 -75 0 -63 3 -76 19 -85 11 -5 23 -10 26 -10 4 0 5 77 4 171 -2
151 -4 171 -20 180 -28 14 -29 12 -29 -52 0 -37 -4 -58 -10 -54 -5 3 -10 35
-10 70 0 60 -7 75 -38 75 -4 0 -6 -78 -4 -172z"/>
<path d="M3487 4248 c-11 -190 -10 -216 13 -228 18 -10 20 -8 20 20 0 16 5 30
10 30 6 0 10 -13 10 -30 0 -19 7 -33 21 -40 11 -7 22 -10 24 -8 4 4 -22 339
-27 343 -10 8 -48 25 -56 25 -5 0 -12 -51 -15 -112z m53 -73 c0 -25 -4 -45
-10 -45 -5 0 -10 20 -10 45 0 25 5 45 10 45 6 0 10 -20 10 -45z"/>
<path d="M3602 4149 c4 -145 7 -163 24 -176 18 -14 19 -9 22 153 3 171 0 183
-37 184 -11 0 -13 -28 -9 -161z"/>
<path d="M3671 4121 c1 -166 2 -172 47 -185 19 -7 22 -4 22 23 0 16 -4 33 -10
36 -6 4 -10 60 -10 135 0 118 -2 130 -19 140 -11 5 -22 10 -26 10 -3 0 -5 -72
-4 -159z"/>
<path d="M3773 4218 c0 -7 -3 -77 -8 -155 -7 -137 -7 -141 14 -152 19 -11 21
-9 21 19 0 18 4 29 10 25 6 -3 10 -19 10 -35 0 -24 24 -49 37 -36 6 6 -18 320
-26 328 -14 15 -58 19 -58 6z m46 -180 c1 -16 -3 -28 -9 -28 -6 0 -10 24 -9
53 1 41 3 47 9 27 4 -14 8 -37 9 -52z"/>
<path d="M3878 4038 c4 -163 5 -178 22 -178 5 0 10 25 11 58 l1 57 12 -65 c8
-47 16 -66 28 -68 16 -3 17 9 13 145 -3 81 -5 154 -5 161 0 6 -7 12 -15 12
-11 0 -15 -13 -16 -52 l-1 -53 -10 60 c-8 53 -20 74 -39 75 -3 0 -3 -69 -1
-152z"/>
<path d="M3990 3982 l0 -158 36 -13 c30 -11 38 -11 46 0 5 8 7 71 6 140 -3
135 -8 148 -60 175 l-28 15 0 -159z m50 -17 c0 -58 -4 -105 -8 -105 -5 0 -9
47 -10 105 -2 66 1 105 8 105 6 0 10 -40 10 -105z"/>
<path d="M5658 4203 c-25 -4 -26 -7 -26 -64 1 -74 -7 -84 -22 -28 -20 79 -25
86 -59 81 l-31 -4 0 -143 c0 -79 -3 -150 -6 -159 -5 -13 1 -16 30 -16 l36 0 0
73 c1 79 10 76 30 -11 12 -53 12 -53 49 -50 l36 3 3 163 c2 89 0 161 -5 161
-4 -1 -20 -4 -35 -6z"/>
<path d="M5403 4173 c-10 -3 -13 -46 -13 -165 0 -142 2 -159 16 -154 9 3 27 6
40 6 l24 0 0 160 0 160 -27 -1 c-16 0 -34 -3 -40 -6z"/>
<path d="M5224 4153 c-18 -4 -22 -19 -42 -161 -11 -86 -19 -158 -17 -160 1 -2
19 0 38 3 29 6 36 12 39 33 2 16 10 28 21 30 13 3 17 -3 17 -27 0 -29 1 -30
38 -24 20 3 38 6 38 7 1 1 -7 64 -17 141 -10 77 -18 146 -19 153 0 12 -48 15
-96 5z m47 -138 c2 -47 0 -60 -11 -60 -11 0 -14 11 -12 45 3 46 11 84 17 78 2
-2 5 -30 6 -63z"/>
<path d="M5029 4133 l-36 -4 -6 -157 c-3 -86 -4 -157 -3 -158 0 -1 18 1 39 4
l37 4 0 64 c0 60 1 64 23 64 12 0 33 7 45 16 19 13 22 24 22 84 0 90 -7 95
-121 83z m59 -93 c-5 -49 -28 -51 -28 -2 0 21 3 42 7 46 13 12 24 -12 21 -44z"/>
<path d="M4820 4107 c-67 -34 -63 -123 8 -170 38 -25 43 -33 40 -61 -4 -41
-22 -40 -26 1 -3 30 -5 32 -35 26 -18 -3 -33 -6 -33 -7 -1 -1 1 -19 5 -41 8
-53 45 -73 102 -56 47 14 59 34 59 100 0 50 -1 52 -51 87 -36 27 -49 42 -47
57 5 31 28 33 28 3 0 -27 8 -30 48 -20 16 5 22 14 22 35 0 50 -63 75 -120 46z"/>
<path d="M5218 3713 c-27 -2 -48 -8 -48 -12 0 -4 -15 -6 -32 -4 -30 3 -31 2
-10 -7 25 -11 69 -6 134 15 44 13 39 14 -44 8z"/>
<path d="M4970 3660 c0 -16 2 -30 4 -30 2 0 6 14 8 30 3 17 1 30 -4 30 -4 0
-8 -13 -8 -30z"/>
<path d="M4847 3673 c-4 -3 -7 -21 -7 -40 0 -23 5 -33 15 -33 11 0 15 11 15
40 0 38 -8 49 -23 33z"/>
<path d="M4888 3645 c-4 -38 -4 -38 30 -29 16 5 22 14 22 35 0 24 -4 29 -24
29 -20 0 -25 -6 -28 -35z"/>
<path d="M4760 3621 c0 -49 0 -49 28 -42 24 7 27 12 27 49 0 39 -2 42 -27 42
-27 0 -28 -2 -28 -49z"/>
<path d="M4621 3653 c-21 -4 -23 -9 -18 -41 6 -35 20 -52 45 -52 8 0 12 17 12
50 0 28 -3 49 -7 49 -5 -1 -19 -4 -32 -6z"/>
<path d="M4675 3609 c-4 -27 -5 -52 -2 -55 8 -8 37 8 31 17 -3 5 0 9 5 9 6 0
11 -5 11 -11 0 -5 5 -7 10 -4 6 3 10 26 10 51 0 42 -1 44 -29 44 -27 0 -30 -3
-36 -51z m45 31 c0 -5 -2 -10 -4 -10 -3 0 -8 5 -11 10 -3 6 -1 10 4 10 6 0 11
-4 11 -10z"/>
<path d="M4531 3641 l-23 -6 21 -25 c21 -24 21 -25 36 -6 30 39 18 52 -34 37z"/>
<path d="M4470 3630 c19 -13 30 -13 30 0 0 6 -10 10 -22 10 -19 0 -20 -2 -8
-10z"/>
<path d="M5433 3128 c-30 -6 -43 -14 -44 -26 0 -9 -6 -56 -13 -104 -10 -69
-10 -88 0 -88 7 0 19 -3 28 -6 12 -5 16 0 16 20 0 16 6 26 15 26 9 0 15 -9 15
-25 0 -21 5 -25 31 -25 22 0 30 4 26 13 -3 8 -8 60 -12 116 -4 56 -10 103 -14
105 -3 1 -25 -1 -48 -6z m17 -84 c0 -24 -4 -44 -10 -44 -5 0 -10 23 -10 51 0
31 4 48 10 44 6 -3 10 -26 10 -51z"/>
<path d="M5308 3103 c-16 -4 -18 -17 -18 -99 0 -94 0 -94 25 -94 25 0 25 1 25
84 0 46 3 91 6 100 6 16 -3 18 -38 9z"/>
<path d="M5183 3082 c-40 -4 -41 -11 -8 -42 25 -23 35 -80 15 -80 -5 0 -10 14
-10 30 0 19 -5 31 -15 32 -8 0 -21 1 -27 2 -18 1 -10 -64 10 -87 11 -12 27
-17 51 -15 45 4 67 38 57 90 -9 51 -34 74 -73 70z"/>
<path d="M5050 3054 c-12 -4 -15 -14 -12 -39 3 -21 0 -35 -7 -35 -6 0 -11 14
-11 30 0 27 -3 30 -31 30 -31 0 -31 -1 -26 -37 11 -66 75 -95 117 -53 20 20
26 63 14 94 -6 16 -14 18 -44 10z"/>
<path d="M4133 3990 c0 -36 2 -50 4 -32 2 17 2 47 0 65 -2 17 -4 3 -4 -33z"/>
<path d="M5245 3569 c-40 -19 -49 -49 -53 -176 -4 -102 -2 -127 12 -148 16
-25 39 -31 71 -19 31 12 43 56 45 164 3 145 2 156 -16 174 -17 18 -30 19 -59
5z m25 -163 c0 -66 -4 -117 -10 -121 -6 -4 -10 37 -10 114 0 74 4 121 10 121
6 0 10 -45 10 -114z"/>
<path d="M5085 3529 c-12 -6 -27 -20 -35 -32 -19 -30 -26 -223 -10 -271 10
-32 15 -36 46 -36 28 0 38 6 54 33 20 33 28 117 11 117 -29 0 -41 -14 -41 -50
0 -22 -4 -42 -10 -45 -6 -4 -10 37 -10 114 0 74 4 121 10 121 6 0 10 -21 10
-46 0 -41 2 -45 23 -42 19 3 22 10 25 59 4 77 -21 103 -73 78z"/>
<path d="M4945 3493 c-11 -3 -23 -8 -28 -12 -8 -8 -40 -321 -33 -328 13 -13
47 12 53 38 7 36 23 38 23 4 0 -20 5 -25 25 -25 30 0 29 -10 13 183 -7 93 -15
147 -22 146 -6 -1 -20 -3 -31 -6z m8 -160 c4 -31 2 -53 -3 -53 -6 0 -10 26
-10 57 0 68 5 67 13 -4z"/>
<path d="M4833 3463 c-9 -3 -13 -28 -14 -71 l-1 -67 -13 58 c-14 65 -18 72
-40 64 -13 -5 -15 -31 -15 -166 0 -154 1 -159 20 -154 17 5 20 14 21 67 1 46
3 55 9 36 4 -14 8 -40 9 -57 1 -28 5 -33 26 -33 l24 0 3 165 c3 163 1 171 -29
158z"/>
<path d="M4635 3405 c-24 -23 -25 -29 -25 -153 0 -86 4 -132 12 -140 18 -18
53 -14 74 9 17 19 19 37 19 155 0 109 -3 137 -15 144 -24 15 -39 12 -65 -15z
m35 -145 c0 -67 -4 -110 -10 -110 -6 0 -10 43 -10 110 0 67 4 110 10 110 6 0
10 -43 10 -110z"/>
<path d="M4543 3393 c-17 -3 -23 -13 -27 -46 -11 -85 -13 -92 -15 -52 -2 71
-9 84 -39 76 l-27 -7 -3 -152 c-2 -147 -2 -152 18 -152 18 0 20 7 21 88 l2 87
10 -82 c7 -59 14 -83 23 -83 10 0 14 14 15 48 0 26 4 67 8 92 7 39 9 34 10
-43 1 -79 3 -88 19 -85 15 3 17 20 20 161 1 86 -1 156 -5 156 -5 -1 -18 -4
-30 -6z"/>
<path d="M1811 3553 c-1 -51 3 -93 7 -93 8 0 5 152 -3 175 -2 6 -4 -32 -4 -82z"/>
<path d="M1869 3634 c-3 -24 2 -172 7 -195 l5 -26 239 -22 c131 -13 245 -21
252 -18 7 3 0 6 -17 7 -64 3 -455 46 -459 51 -3 3 -9 50 -12 105 -6 87 -12
127 -15 98z"/>
<path d="M1600 3450 c0 -10 174 -27 189 -20 7 4 -32 11 -88 16 -56 5 -101 7
-101 4z"/>
<path d="M2365 3340 c3 -5 8 -10 11 -10 2 0 4 5 4 10 0 6 -5 10 -11 10 -5 0
-7 -4 -4 -10z"/>
<path d="M2614 3464 c3 -9 6 -83 6 -165 l0 -149 36 0 35 0 -7 70 c-3 39 -4 70
-1 70 6 0 19 -39 37 -107 10 -40 13 -43 44 -43 l34 0 -6 158 c-2 86 -5 157 -6
158 0 1 -13 4 -28 8 l-28 6 0 -72 c-1 -80 -9 -77 -31 11 -10 40 -19 55 -37 62
-36 14 -55 11 -48 -7z"/>
<path d="M2856 3431 c-15 -17 -17 -36 -14 -139 2 -101 6 -123 22 -141 23 -26
80 -37 112 -22 38 17 46 54 38 170 -6 91 -10 108 -30 128 -30 30 -102 32 -128
4z m84 -146 c0 -124 -13 -154 -24 -54 -11 109 -8 169 9 169 12 0 15 -19 15
-115z"/>
<path d="M3062 3273 l3 -158 35 -3 36 -3 -4 72 c-4 57 -2 71 9 67 9 -3 16 -28
19 -74 l5 -69 33 -3 32 -3 0 65 c0 52 -4 70 -19 85 -16 16 -17 20 -5 25 18 7
19 95 1 120 -12 17 -74 35 -125 36 l-23 0 3 -157z m96 59 c2 -24 -1 -32 -12
-32 -12 0 -16 10 -16 36 0 45 24 42 28 -4z"/>
<path d="M3717 3404 c-13 -17 -15 -29 -9 -37 17 -22 62 -213 62 -264 0 -44 -3
-51 -22 -57 -38 -10 -85 -7 -95 7 -18 22 -22 57 -7 57 9 0 14 -11 14 -30 0
-28 2 -30 41 -30 41 0 41 0 35 33 -8 41 -36 257 -36 274 0 9 -16 13 -55 13
-53 0 -54 0 -59 -32 -21 -128 -36 -260 -31 -268 3 -5 23 -11 43 -12 l37 -1
-33 -4 c-38 -5 -62 10 -63 41 -1 18 -2 18 -8 -4 -4 -15 -15 -26 -28 -28 -11
-2 -25 -14 -31 -28 -10 -20 -9 -24 6 -24 9 0 68 -5 131 -11 128 -12 157 -8
166 21 4 13 18 23 36 27 27 5 29 8 29 55 0 41 21 145 46 231 4 13 -1 17 -25
17 -16 0 -33 5 -37 11 -4 7 2 9 17 7 15 -2 23 2 22 10 -2 6 2 12 7 12 6 0 10
-7 10 -15 0 -8 5 -15 10 -15 6 0 10 -17 11 -37 1 -33 2 -35 8 -13 5 14 4 33
-1 43 -8 16 -4 21 15 18 5 -1 6 3 2 9 -3 5 2 10 12 10 14 0 15 2 4 9 -8 5 -51
12 -95 16 -45 3 -88 8 -96 10 -8 2 -23 -7 -33 -21z m85 -47 c4 -7 7 -28 7 -47
l-1 -35 -11 43 c-9 37 -13 42 -38 42 -15 0 -31 5 -35 11 -5 9 4 10 32 4 21 -4
42 -12 46 -18z m-155 -174 c-3 -10 -5 -2 -5 17 0 19 2 27 5 18 2 -10 2 -26 0
-35z"/>
<path d="M3255 3383 c7 -39 35 -264 35 -280 0 -9 15 -13 44 -13 41 0 44 2 50
31 3 17 6 49 6 70 0 68 17 42 25 -36 6 -63 10 -75 25 -75 9 0 31 -3 48 -6 l30
-6 6 83 c4 46 9 116 12 155 l6 71 -32 5 c-38 6 -36 8 -46 -107 -8 -88 -8 -89
-15 -40 -4 28 -8 73 -8 101 -1 51 -1 52 -37 59 -20 3 -38 5 -40 2 -2 -2 -7
-45 -11 -96 -7 -106 -22 -103 -24 4 -1 87 -6 99 -46 103 -31 3 -33 2 -28 -25z"/>
<path d="M3962 3350 c0 -14 2 -19 5 -12 2 6 2 18 0 25 -3 6 -5 1 -5 -13z"/>
<path d="M3957 3282 l-17 -37 20 24 c11 13 20 29 20 37 0 21 -3 17 -23 -24z"/>
<path d="M3736 3160 c4 -30 8 -57 10 -59 9 -10 3 86 -6 99 -7 10 -8 -2 -4 -40z"/>
<path d="M3887 3193 c3 -7 9 -10 14 -7 14 8 11 21 -5 21 -8 0 -12 -6 -9 -14z"/>
<path d="M3859 3175 c0 -6 -2 -19 -4 -29 -3 -18 -2 -18 13 -3 13 13 14 20 4
29 -7 7 -12 8 -13 3z"/>
<path d="M3398 2755 c-2 -2 -2 -78 0 -169 l3 -166 26 0 c25 0 26 2 19 46 -3
26 -6 100 -6 164 0 108 -2 118 -19 123 -11 3 -21 3 -23 2z"/>
<path d="M3482 2728 c-7 -7 -12 -39 -12 -72 0 -51 5 -68 30 -105 29 -43 40
-101 20 -101 -5 0 -10 15 -10 34 0 22 -6 36 -16 40 -24 9 -24 9 -24 -37 0 -51
22 -87 54 -87 35 0 46 20 46 80 0 45 -6 65 -30 103 -17 26 -29 60 -29 75 2 23
2 24 6 4 4 -21 42 -51 44 -35 10 79 -39 141 -79 101z"/>
<path d="M3590 2556 c0 -159 1 -166 20 -166 18 0 20 7 20 70 0 40 4 70 10 70
6 0 10 -32 10 -75 0 -69 2 -75 21 -75 19 0 20 4 15 78 -5 80 -5 82 -3 147 2
60 -10 93 -36 100 -62 18 -57 32 -57 -149z m60 59 c0 -19 -4 -35 -10 -35 -5 0
-10 16 -10 35 0 19 5 35 10 35 6 0 10 -16 10 -35z"/>
<path d="M3716 2583 c-4 -59 -8 -129 -11 -155 -3 -35 0 -48 11 -52 23 -9 34 2
35 32 0 24 1 25 8 7 5 -11 6 -25 4 -31 -4 -10 31 -27 39 -18 5 4 -18 304 -23
309 -2 2 -16 6 -31 10 l-26 7 -6 -109z m44 -54 c0 -27 -3 -48 -8 -45 -7 4 -4
96 4 96 2 0 4 -23 4 -51z"/>
<path d="M3820 2515 c0 -117 3 -155 13 -155 6 0 22 -3 35 -6 19 -6 22 -3 22
24 0 17 -6 32 -15 36 -9 3 -15 18 -15 36 0 20 5 30 15 30 9 0 15 9 15 25 0 14
-7 28 -15 31 -9 4 -15 19 -15 35 0 19 5 29 15 29 10 0 15 10 15 29 0 21 -6 30
-22 35 -49 13 -48 15 -48 -149z"/>
<path d="M3910 2501 c0 -127 2 -150 16 -155 33 -13 44 -6 44 24 0 17 -4 30
-10 30 -6 0 -10 48 -10 125 0 118 -1 125 -20 125 -19 0 -20 -7 -20 -149z"/>
<path d="M2941 2757 c-9 -23 -15 -27 -33 -22 -17 6 -20 4 -14 -10 15 -39 17
-62 7 -87 -9 -23 -7 -27 14 -32 15 -4 27 -16 31 -31 7 -30 20 -32 27 -5 3 12
14 20 27 20 18 0 20 4 14 23 -10 28 -10 67 0 90 6 13 3 17 -13 17 -14 0 -25
11 -35 33 l-14 32 -11 -28z m12 -49 c9 2 17 -1 17 -7 0 -6 6 -9 13 -7 6 1 9 1
5 -1 -5 -3 -8 -18 -8 -34 0 -30 -30 -54 -38 -31 -2 6 -9 10 -15 8 -7 -1 -9 -1
-4 1 11 7 9 63 -3 63 -5 0 -10 5 -10 11 0 6 5 7 13 2 6 -4 20 -6 30 -5z"/>
<path d="M5680 2607 c0 -35 -3 -106 -7 -157 l-6 -92 81 3 c48 3 86 9 94 17 9
9 14 52 16 136 4 153 3 156 -104 156 l-74 0 0 -63z m98 -89 c-2 -70 -7 -103
-15 -106 -10 -3 -13 21 -13 96 0 54 3 102 7 105 19 19 23 -2 21 -95z"/>
<path d="M5457 2653 c-4 -3 -7 -73 -7 -155 l0 -148 30 0 30 0 0 67 c0 76 9 75
30 -5 15 -54 17 -57 45 -54 17 2 31 5 33 7 2 2 6 69 9 149 l6 146 -34 0 -34 0
3 -59 c1 -34 -2 -62 -8 -66 -5 -3 -10 -1 -10 5 0 7 -7 36 -16 66 -14 49 -18
54 -43 54 -15 0 -31 -3 -34 -7z"/>
<path d="M5270 2646 c0 -2 -9 -61 -20 -132 -27 -177 -27 -174 14 -174 30 0 35
4 41 30 8 37 35 40 35 5 0 -23 4 -25 41 -25 39 0 40 1 35 28 -3 15 -10 65 -16
112 -6 47 -13 102 -16 123 l-6 37 -54 0 c-30 0 -54 -2 -54 -4z m64 -138 c5
-48 4 -58 -9 -58 -16 0 -20 34 -9 89 8 41 10 38 18 -31z"/>
<path d="M5078 2489 c-2 -83 -2 -151 -1 -152 1 -1 29 0 62 1 60 4 61 4 61 33
0 25 -4 29 -27 29 l-26 0 6 120 6 120 -39 0 -39 0 -3 -151z"/>
<path d="M4450 2618 c1 -7 27 -42 60 -78 l59 -65 -1 65 c-1 36 -3 49 -5 30 -7
-61 -12 -68 -34 -41 -10 12 -16 27 -13 32 3 5 0 8 -8 7 -7 -2 -20 12 -28 29
-15 33 -30 43 -30 21z"/>
<path d="M4580 2593 c0 -16 3 -83 6 -150 l6 -123 33 0 c28 0 33 4 39 31 3 17
6 85 6 150 l0 119 -45 0 c-43 0 -45 -1 -45 -27z"/>
<path d="M4684 2480 c0 -74 1 -105 3 -67 2 37 2 97 0 135 -2 37 -3 6 -3 -68z"/>
<path d="M5394 1875 c-3 -9 -44 -260 -44 -269 0 -1 17 0 38 3 28 5 38 11 40
29 5 31 32 28 32 -3 0 -22 4 -25 36 -25 35 0 36 1 31 33 -4 17 -11 78 -18 134
l-12 101 -50 4 c-27 1 -51 -1 -53 -7z m59 -167 c-2 -5 -8 -8 -14 -8 -11 0 -12
35 -2 81 7 34 8 33 14 -16 3 -27 4 -53 2 -57z"/>
<path d="M5560 1746 l0 -136 31 0 32 0 -6 55 c-3 30 -2 55 3 55 5 0 14 -25 21
-55 12 -53 13 -55 46 -55 l33 0 0 135 0 135 -30 0 c-30 0 -30 0 -31 -57 l-1
-58 -17 55 c-15 50 -19 55 -49 58 l-32 3 0 -135z"/>
<path d="M5754 1863 c27 -89 38 -147 37 -195 l-2 -58 36 0 35 0 0 53 c0 31 11
85 25 127 14 40 25 77 25 82 0 4 -13 8 -30 8 -27 0 -30 -4 -36 -40 -8 -49 -24
-63 -24 -21 0 47 -9 61 -42 61 -23 0 -28 -4 -24 -17z"/>
<path d="M4570 1950 c-11 -7 -16 -43 -20 -157 l-7 -148 -1 153 c-1 104 -5 153
-13 150 -6 -2 -11 -61 -12 -163 l-2 -160 25 0 c19 0 26 7 31 30 l7 30 1 -27
c0 -16 7 -28 14 -28 9 0 11 36 9 157 -2 87 -7 161 -10 165 -4 4 -14 3 -22 -2z"/>
<path d="M4457 1934 c-4 -4 -7 -77 -7 -161 0 -154 0 -154 23 -151 22 3 22 5
22 158 0 132 -2 155 -15 158 -9 1 -19 0 -23 -4z"/>
<path d="M4398 1924 c-12 -11 -10 -304 1 -304 5 0 12 12 14 28 l4 27 2 -27 c0
-16 6 -28 11 -28 6 0 10 58 10 155 0 97 -4 155 -10 155 -5 0 -11 -15 -11 -32
l-2 -33 -6 33 c-3 19 -9 30 -13 26z"/>
<path d="M4360 1770 c0 -93 4 -150 10 -150 6 0 10 57 10 150 0 93 -4 150 -10
150 -6 0 -10 -57 -10 -150z"/>
<path d="M3192 1945 c-7 -14 -13 -40 -13 -58 -2 -31 -2 -31 -6 -4 -4 28 -5 28
-69 25 -35 -2 -64 -6 -64 -10 0 -5 0 -71 0 -148 l0 -140 70 0 c68 0 70 1 70
24 0 14 5 28 11 32 8 5 10 33 6 91 -4 52 -2 81 3 78 6 -4 10 -55 10 -116 l0
-109 70 0 70 0 0 30 c0 27 -3 30 -31 30 -28 0 -30 2 -27 33 2 24 8 33 26 35
34 5 31 52 -3 52 -20 0 -25 5 -25 25 0 20 5 25 25 25 18 0 25 6 27 20 0 11 1
26 2 33 1 8 -22 14 -69 18 l-70 5 65 2 c59 2 66 5 77 27 l11 25 -77 0 c-74 0
-78 -1 -89 -25z m18 -80 c0 -8 -4 -15 -10 -15 -5 0 -10 7 -10 15 0 8 5 15 10
15 6 0 10 -7 10 -15z m-53 -33 c-10 -2 -16 -9 -15 -16 2 -6 -1 -13 -7 -14 -5
-1 -11 8 -13 21 -3 22 0 24 25 19 20 -4 23 -7 10 -10z m20 -74 c-3 -8 -6 -5
-6 6 -1 11 2 17 5 13 3 -3 4 -12 1 -19z m-24 -35 c-29 -5 -30 -33 -2 -33 11 0
18 -4 15 -9 -12 -18 -46 1 -46 25 0 20 5 24 28 23 23 -2 24 -2 5 -6z"/>
<path d="M2599 1889 c-19 -19 -20 -30 -17 -131 3 -101 5 -111 27 -129 25 -21
71 -25 87 -9 7 7 19 8 36 1 14 -5 29 -7 32 -4 3 4 6 39 6 80 l0 73 -48 0 c-41
0 -48 -3 -48 -20 0 -11 4 -20 8 -20 4 0 8 -16 8 -35 0 -24 -5 -35 -14 -35 -12
0 -15 21 -18 96 -2 53 0 101 3 106 11 18 29 -2 29 -33 0 -27 2 -29 41 -29 33
0 40 3 35 16 -3 9 -6 24 -6 34 0 56 -116 84 -161 39z"/>
<path d="M2810 1853 c0 -33 3 -100 6 -149 l7 -89 35 1 35 1 -2 68 c-2 52 1 66
11 63 8 -3 15 -28 18 -69 l5 -64 35 0 35 0 -3 60 c-2 43 -8 64 -22 76 -17 15
-17 16 1 27 25 16 25 72 1 102 -15 18 -31 23 -90 28 l-72 5 0 -60z m105 -28
c0 -16 -6 -30 -12 -32 -9 -3 -13 7 -13 32 0 25 4 35 13 33 6 -3 12 -17 12 -33z"/>
<path d="M3430 1898 c-42 -22 -51 -55 -43 -158 7 -110 21 -130 90 -130 57 0
93 33 93 85 0 34 -1 35 -40 35 l-40 0 0 -41 c0 -28 -4 -39 -12 -37 -9 3 -14
36 -16 106 -2 86 0 102 13 102 11 0 15 -11 15 -40 l0 -40 40 0 c39 0 40 1 40
34 0 69 -79 116 -140 84z"/>
<path d="M3050 1591 c0 -5 -3 -16 -6 -25 -5 -13 2 -16 41 -16 45 0 75 16 75
39 0 7 -23 11 -55 11 -30 0 -55 -4 -55 -9z"/>
<path d="M1935 1920 c8 -13 155 -13 175 0 10 7 -16 10 -83 10 -63 0 -96 -4
-92 -10z"/>
<path d="M4850 1874 c-21 -63 2 -156 32 -126 16 16 23 115 9 141 -17 30 -28
26 -41 -15z m30 -104 c0 -5 -4 -10 -10 -10 -5 0 -10 5 -10 10 0 6 5 10 10 10
6 0 10 -4 10 -10z"/>
<path d="M6283 1643 c8 -7 98 -5 105 2 3 3 -21 5 -53 5 -32 0 -55 -3 -52 -7z"/>
<path d="M3135 1250 c-140 -5 -150 -6 -153 -25 -7 -36 -23 -45 -79 -45 l-55 0
6 -31 c3 -17 6 -87 6 -155 l0 -124 43 -1 c35 0 38 -2 20 -9 -29 -12 -29 -16 1
-35 23 -15 25 -15 48 8 22 22 23 27 16 103 -5 43 -8 90 -8 104 0 14 0 51 0 83
0 37 4 56 10 52 6 -4 10 -66 10 -157 l0 -150 31 6 c17 3 35 6 40 6 11 0 11 59
3 203 l-7 106 -36 4 c-35 4 -34 4 4 3 40 -1 40 -1 46 -46 l6 -45 3 45 c3 44
16 -107 19 -218 1 -52 2 -53 29 -50 26 3 27 6 27 56 0 28 3 52 6 52 3 0 11
-22 18 -50 12 -46 15 -50 42 -50 l29 0 0 145 c0 80 3 145 8 145 4 0 23 14 42
30 29 25 32 31 20 40 -8 5 -22 9 -30 8 -8 -1 -82 -5 -165 -8z m53 -68 c11 -15
18 -82 7 -82 -3 0 -10 20 -16 45 -10 41 -14 45 -43 45 -23 0 -27 3 -16 10 19
12 51 3 68 -18z m60 11 c-10 -2 -26 -2 -35 0 -10 3 -2 5 17 5 19 0 27 -2 18
-5z m-283 -83 c3 -5 -2 -10 -12 -10 -17 -1 -17 -1 0 -14 17 -13 16 -14 -3 -19
-17 -4 -20 0 -20 24 0 29 22 41 35 19z m-8 -121 c-16 -9 -18 -19 -12 -54 3
-26 2 -46 -5 -50 -6 -4 -10 15 -10 54 0 57 2 61 23 61 20 -1 21 -1 4 -11z"/>
<path d="M3493 1192 c-36 -3 -43 -7 -44 -25 0 -12 -6 -77 -12 -144 l-13 -123
33 0 c29 0 33 3 33 25 0 16 6 25 15 25 9 0 15 -9 15 -25 0 -21 5 -25 30 -25
18 0 30 5 30 13 -1 25 -38 279 -42 280 -1 1 -22 1 -45 -1z m17 -137 c0 -30 -4
-55 -10 -55 -5 0 -10 25 -10 55 0 30 5 55 10 55 6 0 10 -25 10 -55z"/>
<path d="M3600 1056 l0 -146 28 0 c27 0 27 0 24 62 -4 73 6 71 23 -4 10 -46
15 -53 38 -56 l27 -3 0 145 0 146 -25 0 c-23 0 -24 -4 -27 -62 l-3 -63 -15 60
c-14 53 -19 60 -43 63 l-27 3 0 -145z"/>
<path d="M3774 1184 c3 -9 6 -73 6 -143 l0 -128 53 5 c28 2 58 9 65 14 17 14
17 239 0 256 -7 7 -38 12 -71 12 -50 0 -58 -2 -53 -16z m84 -134 c-2 -45 -7
-80 -13 -80 -11 0 -19 154 -10 179 13 35 26 -19 23 -99z"/>
<path d="M3294 1129 c3 -34 6 -102 6 -150 l0 -89 50 0 c49 0 50 1 50 30 0 23
-4 30 -20 30 -19 0 -20 7 -20 120 l0 120 -36 0 -37 0 7 -61z"/>
<path d="M4620 1055 l0 -145 50 0 c47 0 50 2 50 25 0 18 -5 25 -20 25 -16 0
-20 7 -20 35 0 28 4 35 20 35 15 0 20 7 20 25 0 18 -5 25 -20 25 -16 0 -20 7
-20 30 0 23 4 30 20 30 16 0 20 7 20 30 0 29 -1 30 -50 30 l-50 0 0 -145z"/>
<path d="M4770 1180 c-18 -18 -20 -33 -20 -128 0 -136 8 -151 82 -150 l53 1 0
76 0 76 -34 3 -33 3 7 -50 c4 -27 3 -56 -2 -63 -11 -17 -19 59 -15 140 4 61
22 89 22 33 0 -23 5 -30 26 -34 30 -5 39 10 29 51 -15 61 -74 83 -115 42z"/>
<path d="M4915 1168 c2 -13 11 -54 20 -91 8 -38 15 -95 15 -128 0 -56 1 -59
25 -59 23 0 25 4 25 48 0 26 11 90 25 142 14 52 25 99 25 103 0 5 -12 7 -27 5
-25 -3 -28 -8 -31 -43 -5 -62 -22 -67 -22 -7 0 51 0 52 -30 52 -26 0 -30 -3
-25 -22z"/>
<path d="M5071 1042 l-2 -150 30 -4 30 -4 3 60 c3 57 5 61 28 64 36 5 50 29
50 87 0 70 -15 87 -81 93 l-55 4 -3 -150z m89 52 c0 -25 -4 -34 -16 -34 -12 0
-15 6 -10 23 3 12 6 30 6 40 0 10 5 15 10 12 6 -3 10 -22 10 -41z"/>
<path d="M5230 1150 c0 -24 4 -30 22 -30 21 0 21 -2 14 -119 l-6 -119 30 -4
c16 -3 32 -2 35 0 3 3 5 59 5 124 0 111 1 118 20 118 16 0 20 7 20 30 l0 30
-70 0 -70 0 0 -30z"/>
<path d="M6066 1043 c-6 -14 -5 -15 5 -6 7 7 10 15 7 18 -3 3 -9 -2 -12 -12z"/>
<path d="M5997 953 c-12 -11 53 -33 79 -27 13 3 24 9 24 13 0 16 -13 19 -31 8
-15 -9 -23 -9 -39 1 -23 14 -24 14 -33 5z"/>
<path d="M6060 558 l-35 -22 53 -7 c29 -4 63 -14 77 -23 24 -16 25 -16 25 4 0
26 -43 70 -67 70 -10 0 -34 -10 -53 -22z"/>
<path d="M6038 512 c-27 -5 -24 -63 5 -90 33 -31 77 -28 110 6 15 15 27 31 27
35 0 23 -101 58 -142 49z"/>
<path d="M3378 574 c-375 -13 -389 -14 -418 -35 -16 -13 -26 -25 -20 -29 5 -3
-9 -7 -31 -7 -46 -2 -89 -26 -96 -54 -3 -10 -14 -21 -26 -25 -11 -3 -25 -11
-31 -16 -6 -5 -74 -50 -151 -99 -190 -122 -185 -118 -185 -158 l0 -34 68 6
c37 4 189 11 337 18 220 9 275 14 295 28 14 9 32 19 40 23 8 4 -8 7 -35 7 -49
1 -95 21 -95 42 0 6 12 1 27 -11 32 -25 123 -27 162 -3 23 15 23 17 19 144 -2
71 0 125 4 121 4 -4 9 -65 10 -136 l3 -130 70 3 c84 2 105 19 105 86 0 31 5
45 16 49 25 10 26 3 16 -63 -5 -34 -7 -62 -6 -64 2 -2 19 -1 39 1 29 4 35 8
35 28 0 15 6 24 15 24 9 0 15 -9 15 -25 0 -23 4 -25 40 -25 37 0 40 2 35 22
-12 59 -25 145 -25 172 0 26 7 35 43 54 24 12 72 41 108 62 57 36 61 40 34 39
-16 -1 -204 -8 -417 -15z m230 -62 c15 -19 16 -32 2 -32 -5 0 -10 9 -10 20 0
18 -7 20 -59 20 l-60 0 -6 -57 c-7 -62 -13 -88 -19 -82 -2 2 1 36 7 74 l12 70
45 5 c53 7 71 3 88 -18z m-193 -12 c26 -26 25 -133 -1 -123 -11 4 -10 8 2 21
11 11 14 26 11 50 -9 55 -21 62 -106 63 -65 2 -70 3 -36 9 55 11 106 2 130
-20z m-308 14 c-3 -3 -12 -4 -19 -1 -8 3 -5 6 6 6 11 1 17 -2 13 -5z m81 -1
c-10 -2 -28 -2 -40 0 -13 2 -5 4 17 4 22 1 32 -1 23 -4z m-179 -101 l-2 -37
-6 42 c-4 23 -14 51 -22 61 -8 10 -4 7 9 -6 15 -16 22 -34 21 -60z m18 -95
c-2 -34 -3 -6 -3 63 0 69 1 97 3 63 2 -35 2 -91 0 -126z m101 66 l-2 -118 -5
100 c-6 93 -4 135 5 135 2 0 3 -53 2 -117z m94 55 c2 -20 0 -34 -4 -32 -4 3
-8 24 -7 47 1 47 6 41 11 -15z m128 -8 c0 -10 -4 -22 -10 -25 -6 -4 -10 7 -10
25 0 18 4 29 10 25 6 -3 10 -15 10 -25z m-442 -132 c-3 -48 -4 -45 -12 34 -4
48 -5 96 0 105 10 21 17 -57 12 -139z m647 44 c-3 -7 -9 -10 -15 -7 -12 7 -13
45 -3 72 6 14 9 11 15 -17 4 -19 5 -41 3 -48z m-758 46 c-3 -8 -6 -5 -6 6 -1
11 2 17 5 13 3 -3 4 -12 1 -19z m10 -110 c-2 -18 -4 -4 -4 32 0 36 2 50 4 33
2 -18 2 -48 0 -65z m181 85 c-10 -2 -26 -2 -35 0 -10 3 -2 5 17 5 19 0 27 -2
18 -5z m227 -112 c-8 -17 -18 -31 -21 -31 -2 0 2 13 11 30 8 16 16 51 17 77
l2 48 3 -47 c3 -30 -2 -58 -12 -77z m135 64 c0 -19 -4 -35 -10 -35 -5 0 -10
16 -10 35 0 19 5 35 10 35 6 0 10 -16 10 -35z m-342 -30 c2 -47 0 -51 -31 -72
-22 -15 -48 -23 -78 -23 -44 0 -89 21 -89 42 0 6 10 2 23 -10 17 -16 36 -22
71 -22 62 0 96 31 96 89 0 39 -1 40 -40 44 l-40 4 42 -1 43 -1 3 -50z"/>
<path d="M4272 359 c-1 -14 -5 -48 -8 -75 -5 -37 -4 -46 5 -38 8 7 11 34 8 75
-2 35 -4 52 -5 38z"/>
<path d="M5378 583 c-2 -5 -5 -36 -7 -69 -2 -57 -1 -62 21 -67 41 -11 43 -8
46 68 l3 75 -30 0 c-16 0 -31 -3 -33 -7z"/>
<path d="M5476 513 c-15 -177 -10 -192 59 -179 28 6 35 11 35 30 0 17 -5 23
-17 22 -16 -1 -18 9 -15 102 l3 102 -29 0 c-29 0 -29 0 -36 -77z"/>
<path d="M4870 555 c0 -8 10 -17 23 -19 79 -17 122 -24 126 -21 2 3 -4 16 -13
30 -15 22 -23 25 -76 25 -46 0 -60 -3 -60 -15z"/>
<path d="M4640 500 c0 -12 10 -24 23 -30 l22 -9 -23 0 -23 -1 3 -152 c3 -136
5 -153 21 -156 15 -3 17 9 17 136 0 152 3 172 29 171 10 0 11 -2 4 -6 -10 -3
-13 -45 -13 -158 0 -127 3 -154 15 -159 12 -4 15 4 16 37 l1 42 7 -35 c9 -44
19 -61 34 -59 7 1 23 -2 36 -7 23 -7 24 -8 5 -16 -18 -8 -18 -8 1 -5 14 1 22
12 26 37 l6 35 2 -31 c1 -23 7 -33 21 -37 11 -3 21 -2 23 1 2 4 -1 77 -7 162
l-11 155 -31 3 -31 3 -10 -128 -10 -128 -1 132 c-2 114 -4 134 -19 143 -13 8
-14 10 -2 7 12 -4 14 1 11 23 -4 26 -9 29 -66 39 -80 14 -76 14 -76 -9z m108
-91 c-3 -20 -5 -19 -9 9 -3 20 -2 29 4 23 5 -5 7 -19 5 -32z m99 -181 c-3 -7
-5 -2 -5 12 0 14 2 19 5 13 2 -7 2 -19 0 -25z"/>
<path d="M4455 477 c-18 -26 -21 -196 -4 -245 12 -35 35 -48 55 -31 20 16 19
109 -1 109 -11 0 -15 -11 -15 -37 0 -20 -3 -33 -7 -29 -11 11 -13 196 -2 196
5 0 9 -18 9 -39 0 -25 5 -41 15 -45 12 -4 15 4 15 45 0 80 -34 120 -65 76z"/>
<path d="M4540 330 c0 -127 2 -150 15 -150 12 0 15 13 15 55 0 30 5 55 10 55
6 0 10 -26 10 -59 0 -42 4 -60 15 -64 12 -5 14 18 17 143 3 146 0 160 -28 160
-2 0 -4 -22 -4 -50 0 -30 -4 -50 -11 -50 -8 0 -10 17 -7 50 5 46 -2 60 -28 60
-2 0 -4 -67 -4 -150z"/>
</g>
</svg>
